<svg xmlns="http://www.w3.org/2000/svg" enable-background="new 0 0 32 32" viewBox="0 0 32 32" id="Boost">
  <g id="Boost" fill="#000000" class="color000000 svgShape">
    <path fill="#cdf9f5" d="M7.209 29.307C4.303 29.993 2.045 30 2 30c0-.045.007-2.303.693-5.209.666-2.82 4.203-3.785 6.252-1.736l0 0C10.994 25.104 10.03 28.641 7.209 29.307zM15.488 23.98C30.267 17.211 30.236 6.041 29.925 2.983c-.049-.48-.428-.859-.907-.907C25.959 1.764 14.789 1.733 8.02 16.512 11.747 20.239 11.761 20.253 15.488 23.98z" class="colorcdf6f9 svgShape"></path>
    <circle cx="20.782" cy="11.218" r="2.779" fill="#ffffff" class="colorffffff svgShape"></circle>
    <path fill="#cdf9f5" d="M12.97 8.78c-1.77 1.97-3.47 4.49-4.95 7.73v.01L3.2 13.86c-.6-.33-.72-1.14-.23-1.63l2.55-2.55c.58-.58 1.37-.9 2.19-.9H12.97zM23.22 19.03v5.27c0 .82-.33 1.61-.91 2.19l-2.54 2.54c-.49.49-1.3.37-1.63-.23l-2.66-4.82h.01C18.73 22.5 21.25 20.8 23.22 19.03z" class="colorcdf6f9 svgShape"></path>
    <path fill="#4db6ac" d="M5.027 21.239c-1.624.461-2.824 1.712-3.21 3.345C1.108 27.587 1.1 29.903 1.1 30c0 .497.403.9.9.9.097 0 2.413-.009 5.416-.718 1.633-.386 2.884-1.586 3.345-3.21.468-1.646.027-3.349-1.179-4.555C8.376 21.213 6.676 20.771 5.027 21.239zM9.029 26.48c-.28.988-1.038 1.717-2.027 1.95-1.688.398-3.156.56-4.058.625.065-.901.227-2.37.625-4.058.233-.989.962-1.747 1.95-2.027.265-.076.533-.112.797-.112.739 0 1.449.289 1.992.833C9.047 24.429 9.316 25.472 9.029 26.48zM30.82 2.892c-.092-.9-.812-1.62-1.712-1.712C26.511.917 19.05.9 12.568 7.882L7.707 7.878c-.001 0-.003 0-.005 0-1.05 0-2.077.426-2.82 1.168L2.33 11.598c-.434.434-.632 1.031-.545 1.637s.444 1.123.98 1.418l4.718 2.596 7.266 7.266 2.596 4.718c.295.537.813.895 1.419.98.094.014.187.021.278.021.508 0 .991-.199 1.358-.565l2.546-2.546c.754-.754 1.169-1.756 1.169-2.821l.001-4.87C31.101 12.953 31.085 5.493 30.82 2.892zM3.566 12.981C3.561 12.938 3.573 12.9 3.604 12.87l2.552-2.551c.407-.407.971-.641 1.548-.641 0 0 .001 0 .002 0l3.343.003c-1.211 1.567-2.367 3.415-3.429 5.589l-3.986-2.194C3.595 13.055 3.573 13.023 3.566 12.981zM28.927 2.971c.054.005.097.049.103.104.309 3.032.237 13.324-13.351 19.823l-6.576-6.576C15.602 2.733 25.889 2.659 28.927 2.971zM22.316 24.303c0 .585-.228 1.135-.642 1.548l-2.546 2.546c-.029.03-.067.045-.109.037-.043-.007-.075-.029-.097-.066l-2.193-3.986c2.174-1.061 4.021-2.217 5.587-3.427L22.316 24.303z" class="color1a83a8 svgShape"></path>
    <path fill="#4db6ac" d="M20.781,14.897c0.982,0,1.907-0.382,2.603-1.077c0,0,0,0,0,0c1.434-1.435,1.434-3.769,0-5.204
		c-1.391-1.39-3.813-1.39-5.204,0c-0.694,0.695-1.078,1.619-1.078,2.602s0.384,1.907,1.078,2.602
		C18.875,14.515,19.799,14.897,20.781,14.897z M19.453,9.889c0.354-0.355,0.826-0.55,1.328-0.55s0.975,0.195,1.329,0.55
		c0.732,0.733,0.732,1.925,0,2.658c-0.709,0.71-1.948,0.71-2.657,0c-0.355-0.355-0.551-0.827-0.551-1.329
		S19.098,10.245,19.453,9.889z" class="color1a83a8 svgShape"></path>
  </g>
</svg>
