<svg xmlns="http://www.w3.org/2000/svg" viewBox="0 0 32 32" id="Business">
  <path fill-rule="evenodd" d="M15.99 1.46c-1.511 0-2.74 1.25-2.74 2.77 0 .706.272 1.345.707 1.836C12.281 6.381 11 7.81 11 9.537v1.95a.5.5 0 0 0 .5.5h1.883a.5.5 0 0 0 .23 0h4.77a.5.5 0 0 0 .23 0H20.5a.5.5 0 0 0 .5-.5v-1.95c0-1.734-1.29-3.165-2.975-3.473a2.76 2.76 0 0 0-2.035-4.603zm0 1c.965 0 1.742.784 1.742 1.77 0 .987-.777 1.77-1.742 1.77-.964 0-1.74-.783-1.74-1.77 0-.986.776-1.77 1.74-1.77zm3.403 1-.25.97.418.107 1.113.406.256.125.435-.902-.283-.135-.045-.02-1.148-.42-.047-.015-.45-.115zm-7.176.116-.518.153-.037.013-.894.356-.038.015-.445.219.44.898.427-.21.84-.334h.012l.506-.155-.293-.955zm10.086 1.059-.52.851.932.567.691.517.598-.8-.715-.538-.041-.023-.945-.574zm-12.93.187-.355.21-.034.02-.779.542-.03.023-.495.403.63.775.481-.39.732-.51.016-.01.34-.201-.506-.862zm15.428 1.63-.674.737.357.325.782.861.154.207.803-.6-.176-.234-.031-.037-.807-.885-.033-.033-.375-.342zm-17.89.267-.186.172-.026.027-.636.7-.026.028-.49.631.789.614.467-.6h.004l.623-.687.01-.01.158-.149-.688-.726zM14.65 7h2.699C18.836 7 20 8.134 20 9.537v1.45h-1.002V9.433a.5.5 0 0 0-.506-.508.5.5 0 0 0-.494.508v1.552h-4V9.434a.5.5 0 0 0-.506-.508.5.5 0 0 0-.494.508v1.552H12V9.537C12 8.134 13.164 7 14.65 7zM26.84 8.828l-.854.52.565.931.375.778.9-.436-.385-.797-.023-.043-.578-.953zm-21.877.303-.055.086-.02.033-.466.832-.018.033-.396.86.906.42.38-.825.009-.013.437-.787.006-.01.05-.074-.833-.555zm23.256 2.463-.94.344.178.482.299 1.16.027.186.99-.15-.033-.212-.01-.049-.308-1.197-.014-.049-.19-.515zm-24.586.392-.26.912-.01.038-.193.964-.008.04-.008.066.994.119.008-.064.184-.91.254-.89-.961-.275zm12.36.971a.5.5 0 0 0-.493.508v3.76l-4.271 2.857a.5.5 0 1 0 .554.83l4.229-2.828 4.203 2.828a.5.5 0 0 0 .558-.83L16.5 17.207v-3.742a.5.5 0 0 0-.508-.508zm12.93 1.643-.911.142h-.076v.012l.062 1.24-.059 1.174 1 .05L29 16.02l-.5-.024.5-.025-.064-1.28-.006-.05-.006-.041zm-25.886.44L3 15.978v.044l.055 1.059.998-.05-.051-1.038.035-.914-1-.04zm1.139 2.935-.989.148.073.47.01.052.308 1.195.014.05.1.27.939-.344-.088-.238-.299-1.16-.068-.443zm23.627.136-.047.305-.299 1.162-.135.367.938.344.148-.4.014-.05.308-1.196.01-.05.051-.331-.988-.15zm-20.81 1.35c-1.512 0-2.743 1.25-2.743 2.77 0 .705.273 1.344.709 1.835C3.282 24.38 2 25.808 2 27.537v1.95a.5.5 0 0 0 .5.5h1.883a.5.5 0 0 0 .232 0h4.768a.5.5 0 0 0 .232 0h1.887a.5.5 0 0 0 .5-.5v-1.95c0-1.734-1.29-3.165-2.975-3.473a2.76 2.76 0 0 0-2.035-4.603zm17.997 0c-1.511 0-2.742 1.25-2.742 2.77 0 .705.273 1.344.709 1.835-1.677.314-2.959 1.742-2.959 3.471v1.95a.5.5 0 0 0 .5.5h1.885a.5.5 0 0 0 .23 0h4.77a.5.5 0 0 0 .23 0H29.5a.5.5 0 0 0 .5-.5v-1.95c0-1.734-1.29-3.165-2.975-3.473a2.76 2.76 0 0 0-2.035-4.603zm-17.998 1c.965 0 1.742.783 1.742 1.77 0 .986-.777 1.769-1.742 1.769a1.749 1.749 0 0 1-1.742-1.77c0-.986.778-1.77 1.742-1.77zm17.998 0c.965 0 1.742.783 1.742 1.77 0 .986-.777 1.769-1.742 1.769a1.749 1.749 0 0 1-1.742-1.77c0-.986.778-1.77 1.742-1.77zM5.65 25h2.702c1.486 0 2.65 1.134 2.65 2.537v1.45H10v-1.553a.5.5 0 0 0-.508-.506.5.5 0 0 0-.492.506v1.552H5v-1.552a.5.5 0 0 0-.508-.506.5.5 0 0 0-.492.506v1.552H3v-1.449C3 26.134 4.164 25 5.65 25zm17.998 0h2.702c1.486 0 2.65 1.134 2.65 2.537v1.45h-1.002v-1.553a.5.5 0 0 0-.508-.508.5.5 0 0 0-.492.508v1.552h-4v-1.552a.5.5 0 0 0-.508-.508.5.5 0 0 0-.492.508v1.552h-1v-1.449c0-1.403 1.164-2.537 2.65-2.537zm-11.23 1.86-.178.988.633.181.037.01.965.195.04.01.065.01.122-.994-.065-.01-.91-.186-.709-.205zm7.137.013-1.162.295-.444.068.149.99.47-.072.05-.01 1.198-.306.05-.014-.311-.951zm-2.547.484-1.037.05-.914-.038-.043 1 .94.04h.044l1.059-.054-.05-.998z" color="#000" font-family="sans-serif" font-weight="400" overflow="visible" style="line-height:normal;text-indent:0;text-align:start;text-decoration-line:none;text-decoration-style:solid;text-decoration-color:#000;text-transform:none;block-progression:tb;isolation:auto;mix-blend-mode:normal" fill="#4db6ac" class="color000000 svgShape"></path>
</svg>
