<svg xmlns="http://www.w3.org/2000/svg" enable-background="new 0 0 512 512" viewBox="0 0 512 512" id="onlinestore">
  <path d="M476.961,248.247h-80.965V27.045c0-10.371-8.416-18.787-18.787-18.787H134.834c-4.566,0-8.768,1.627-12.023,4.348
		c-2.465,2.053-4.396,4.736-5.55,7.797c-0.79,2.064-1.214,4.299-1.214,6.643v69.198h-81C25.096,96.243,17,104.339,17,114.29v131.906
		c0,9.951,8.096,18.047,18.047,18.047h81v220.712c0,10.371,8.416,18.787,18.787,18.787h242.375c10.371,0,18.787-8.416,18.787-18.787
		v-68.947h80.965c9.947,0,18.039-8.092,18.039-18.039V266.287C495,256.34,486.908,248.247,476.961,248.247z M280,24.247h16
		c2.209,0,4,1.791,4,4s-1.791,4-4,4h-16c-2.209,0-4-1.791-4-4S277.791,24.247,280,24.247z M216,24.247h40c2.209,0,4,1.791,4,4
		s-1.791,4-4,4h-40c-2.209,0-4-1.791-4-4S213.791,24.247,216,24.247z M35.047,256.243c-5.548,0-10.047-4.498-10.047-10.047V114.29
		c0-5.549,4.499-10.047,10.047-10.047h81H132h90.953c5.549,0,10.047,4.498,10.047,10.047v131.906
		c0,5.549-4.498,10.047-10.047,10.047H182v-64.816c6.467-2.175,11.047-8.477,11.047-15.634v-2.72c0-1.641-0.23-3.271-0.69-4.83
		c-0.41-1.45-1.01-2.83-1.79-4.141l-19.73-32.88c-1.11-1.85-3.11-2.979-5.26-2.979h-12.9l12.19,38.8c0.12,0.39,0.18,0.79,0.18,1.2
		h-8.19l-12.57-40h-11.24v40h-8v-40h-11.43l-12.58,40h-8.19c0-0.41,0.06-0.811,0.19-1.2l12.19-38.8h-12.71
		c-2.15,0-4.15,1.13-5.26,2.979l-19.73,32.88c-0.78,1.311-1.38,2.69-1.79,4.141c-0.46,1.56-0.69,3.189-0.69,4.83v2.72
		c0,7.842,5.499,14.648,12.953,16.132v64.318H35.047z M86,231.812v-19.138c0-1.343,1.089-2.431,2.432-2.431h43.137
		c1.343,0,2.431,1.088,2.431,2.431v19.138c0,1.343-1.088,2.432-2.431,2.432H88.432C87.089,234.243,86,233.154,86,231.812z
		 M142,222.243c0-6.628,5.373-12,12-12s12,5.372,12,12v34h-24V222.243z M255.985,484.311c-5.366,0-9.715-4.35-9.715-9.715
		s4.35-9.715,9.715-9.715c5.366,0,9.716,4.35,9.716,9.715S261.352,484.311,255.985,484.311z M380,441.782c0,3.57-2.9,6.47-6.47,6.47
		H138.47c-3.57,0-6.47-2.899-6.47-6.47V264.243h90.953c9.951,0,18.047-8.096,18.047-18.047V114.29
		c0-9.951-8.096-18.047-18.047-18.047H132V62.722c0-3.579,2.9-6.47,6.47-6.47h235.06c3.569,0,6.47,2.891,6.47,6.47v185.525h-90.961
		c-9.947,0-18.039,8.093-18.039,18.04v131.682c0,9.947,8.092,18.039,18.039,18.039H380V441.782z M316.801,320.977v-2.17
		c0-1.039,0.75-1.92,1.76-2.1l25.33-4.48c1.289-0.209,2.619,0.021,3.739,0.701l4.49,2.689c0.649,0.391,1.04,1.08,1.04,1.83v3.09
		c0,7.141-4.03,13.5-9.99,16.6v6.84c0,0.371,0.07,0.711,0.221,1.03c0.39,0.851,1.239,1.431,2.229,1.431h7.46
		c-0.072,0.635-0.179,1.258-0.311,1.873c-0.035,0.16-0.084,0.314-0.123,0.473c-0.105,0.432-0.216,0.86-0.349,1.279
		c-0.083,0.257-0.181,0.506-0.273,0.758c-0.114,0.312-0.228,0.623-0.356,0.926c-0.116,0.271-0.246,0.536-0.375,0.802
		c-0.137,0.281-0.273,0.562-0.424,0.835c-3.24,5.93-9.521,9.955-16.752,9.955c-7.206,0-13.468-4-16.717-9.896
		c-0.178-0.32-0.34-0.648-0.498-0.979c-0.108-0.228-0.221-0.453-0.32-0.686c-0.139-0.322-0.26-0.654-0.382-0.986
		c-0.089-0.244-0.185-0.486-0.265-0.736c-0.113-0.352-0.203-0.713-0.295-1.072c-0.061-0.238-0.133-0.473-0.185-0.715
		c-0.105-0.49-0.183-0.992-0.25-1.496c-0.015-0.112-0.041-0.221-0.054-0.334h8.287c1.091,0,2.031-0.73,2.341-1.73
		c0.069-0.23,0.11-0.47,0.11-0.73v-7.279C320.471,333.557,316.801,327.697,316.801,320.977z M487,397.969
		c0,5.545-4.494,10.039-10.039,10.039h-80.965H380h-5.018v-48.011c0-7.493-6.072-13.563-13.564-13.563h-0.979v-32.736
		c0-7.02-2.85-13.391-7.459-17.99c-4.601-4.609-10.971-7.46-18-7.46c-14.061,0-25.45,11.4-25.45,25.45v32.736h-0.984
		c-7.493,0-13.563,6.07-13.563,13.563v48.011h-5.943c-5.545,0-10.039-4.494-10.039-10.039V266.287
		c0-5.545,4.494-10.039,10.039-10.039H380h15.996h80.965c5.545,0,10.039,4.494,10.039,10.039V397.969z" fill="#4db6ac" class="color000000 svgShape"></path>
  <path d="M352 199.247c-2.209 0-4 1.791-4 4v16c0 2.209 1.791 4 4 4s4-1.791 4-4v-16C356 201.038 354.209 199.247 352 199.247zM283.17 144.077c.77.76 1.79 1.17 2.83 1.17.52 0 1.04-.1 1.53-.3.84-.351 1.51-.95 1.94-1.7.34-.6.529-1.28.529-2v-6h54c2.21 0 4 1.79 4 4v40c0 2.21 1.79 4 4 4s4-1.79 4-4v-40c0-6.62-5.38-12-12-12h-54v-6c0-1.62-.97-3.08-2.47-3.69-1.49-.63-3.21-.279-4.36.86l-10 10c-1.56 1.56-1.56 4.1 0 5.66L283.17 144.077zM160 311.248c2.209 0 4-1.791 4-4v-16c0-2.209-1.791-4-4-4s-4 1.791-4 4v16C156 309.457 157.791 311.248 160 311.248zM228.83 366.417c-1.15-1.14-2.87-1.479-4.36-.86-1.5.61-2.47 2.07-2.47 3.69v6h-54c-2.21 0-4-1.79-4-4v-40c0-2.21-1.79-4-4-4s-4 1.79-4 4v40c0 6.62 5.38 12 12 12h54v6c0 .72.19 1.4.53 2 .43.75 1.1 1.351 1.94 1.7.49.2 1.01.3 1.53.3 1.04 0 2.06-.409 2.83-1.17l10-10c1.56-1.56 1.56-4.101 0-5.66L228.83 366.417zM335.367 332.975c4.055 0 7.342-3.287 7.342-7.341v-.026c0-.626-.508-1.133-1.133-1.133h-12.417c-.626 0-1.132.507-1.132 1.133v.026C328.027 329.688 331.313 332.975 335.367 332.975zM412.04 324.147c-.18-1.03-.28-2.091-.28-3.171v-2.17c0-1.039.75-1.92 1.771-2.1l25.319-4.48c1.291-.209 2.621.021 3.75.701l4.49 2.689c.641.391 1.03 1.08 1.03 1.83v3.09c0 1.311-.14 2.59-.399 3.84 4.76-3.029 7.909-8.359 7.909-14.42v-.18c-.13-11.93-9.829-21.53-21.76-21.53h-7.67c-6 0-11.42 2.431-15.351 6.36-3.93 3.93-6.359 9.35-6.359 15.35C404.49 315.867 407.49 321.077 412.04 324.147zM424.121 324.475c-.625 0-1.131.507-1.131 1.132v.026c0 4.055 3.286 7.342 7.34 7.342 4.055 0 7.342-3.287 7.342-7.342v-.026c0-.625-.508-1.132-1.133-1.132H424.121zM456.38 346.438h-8.329c-1.091 9.52-9.171 16.91-18.971 16.91s-17.88-7.391-18.97-16.91h-6.601c-7.5 0-13.57 6.069-13.57 13.56l.021 24.222h16.021v23.788h47.966v-23.788h16.014l-.021-24.222C469.939 352.507 463.87 346.438 456.38 346.438z" fill="#4db6ac" class="color000000 svgShape"></path>
</svg>
