<svg xmlns="http://www.w3.org/2000/svg" fill-rule="evenodd" stroke-linejoin="round" stroke-miterlimit="2" clip-rule="evenodd" viewBox="0 0 64 64"><g transform="translate(-192 -448)"><path d="M239,465L239,474C239,475.657 240.343,477 242,477L246,477C247.657,477 249,475.657 249,474L249,465C249,465 250,465 250,465C251.136,465 252.175,464.358 252.683,463.342C253.191,462.325 253.082,461.109 252.4,460.2C252.4,460.2 246.4,452.2 246.4,452.2C245.833,451.445 244.944,451 244,451C243.056,451 242.167,451.445 241.6,452.2C241.6,452.2 235.6,460.2 235.6,460.2C234.918,461.109 234.809,462.325 235.317,463.342C235.825,464.358 236.864,465 238,465L239,465Z"/><path d="M84.587 505.999L70.001 491.413 67.122 494.292C66.732 494.683 66.732 495.316 67.122 495.706 67.122 495.706 80.294 508.878 80.294 508.878 80.684 509.268 81.317 509.268 81.708 508.878L84.587 505.999zM71.415 489.999C71.415 489.999 86.001 504.585 86.001 504.585 86.001 504.585 90.122 500.464 90.122 500.464 91.06 499.526 92.332 498.999 93.658 498.999 97.364 498.999 108.001 498.999 108.001 498.999 108.796 498.999 109.559 498.683 110.122 498.121 110.122 498.121 124.122 484.121 124.122 484.121 125.293 482.95 125.293 481.049 124.122 479.878 122.951 478.707 121.05 478.707 119.879 479.878 119.879 479.878 114.624 485.134 112.223 487.535 111.285 488.472 110.013 488.999 108.687 488.999L94.086 489C93.534 489 93.086 488.552 93.086 488 93.086 487.448 93.534 487 94.086 487 94.086 487 101.724 486.999 102.001 486.999 102.796 486.999 103.559 486.683 104.122 486.121 104.685 485.558 105.001 484.795 105.001 483.999 105.001 483.204 104.685 482.441 104.122 481.878 103.559 481.315 102.796 480.999 102.001 480.999 97.386 480.999 85.568 480.999 81.658 480.999 80.862 480.999 80.099 481.315 79.536 481.878 79.536 481.878 71.415 489.999 71.415 489.999z" transform="translate(128)"/><path d="M224,451C216.825,451 211,456.825 211,464C211,471.175 216.825,477 224,477C231.175,477 237,471.175 237,464C237,456.825 231.175,451 224,451ZM223,457C220.791,457 219,458.791 219,461C219,461 219,461 219,461C219,463.209 220.791,465 223,465L223,469C221.895,469 221,468.105 221,467C221,466.448 220.552,466 220,466C219.448,466 219,466.448 219,467C219,469.209 220.791,471 223,471L223,472C223,472.552 223.448,473 224,473C224.552,473 225,472.552 225,472L225,471C227.209,471 229,469.209 229,467L229,467C229,464.791 227.209,463 225,463L225,459C226.105,459 227,459.895 227,461C227,461.552 227.448,462 228,462C228.552,462 229,461.552 229,461C229,458.791 227.209,457 225,457L225,456C225,455.448 224.552,455 224,455C223.448,455 223,455.448 223,456L223,457ZM225,465L225,469C226.105,469 227,468.105 227,467C227,467 227,467 227,467C227,465.895 226.105,465 225,465ZM223,459L223,459C221.895,459 221,459.895 221,461C221,462.105 221.895,463 223,463L223,459Z" transform="translate(-4)"/></g></svg>