<svg xmlns="http://www.w3.org/2000/svg" fill="none" viewBox="0 0 64 64" id="SecurePayment">
  <path fill="#2b514d" fill-rule="evenodd" d="M47.461 28.516a2.666 2.666 0 0 1 2.411 0l7.087 3.59a2.606 2.606 0 0 1 1.415 1.992c.2 1.567.594 5.631-.104 9.602-.4 2.28-2.166 4.291-3.81 5.76-1.699 1.519-3.537 2.69-4.481 3.255a2.538 2.538 0 0 1-2.63-.009c-.936-.568-2.75-1.743-4.439-3.259-1.637-1.47-3.392-3.468-3.84-5.716-.715-3.581-.3-7.98-.106-9.608a2.614 2.614 0 0 1 1.423-2.023l7.074-3.584Zm-5.853 5.955c-.193 1.637-.544 5.63.076 8.738.27 1.347 1.443 2.849 3.008 4.254 1.478 1.328 3.095 2.386 3.98 2.927.894-.538 2.527-1.592 4.01-2.917 1.573-1.406 2.727-2.9 2.961-4.234.623-3.54.281-7.253.09-8.763l-7.066-3.581-7.059 3.576Z" clip-rule="evenodd" class="color2b3151 svgShape"></path>
  <path fill="#4db6ac" fill-rule="evenodd" d="M53.654 36.546c.52.52.52 1.365 0 1.885l-5.778 5.778c-.52.52-1.365.52-1.885 0L43.1 41.32a1.333 1.333 0 1 1 1.886-1.885l1.946 1.946 4.835-4.835c.521-.52 1.365-.52 1.886 0zM14.54 18.45a1.49 1.49 0 1 0 0 2.979 1.49 1.49 0 0 0 0-2.98zm-3.873 1.49a3.873 3.873 0 1 1 7.747 0 3.873 3.873 0 0 1-7.747 0z" clip-rule="evenodd" class="color445cda svgShape"></path>
  <path fill="#4db6ac" fill-rule="evenodd" d="M19.903 18.45a1.49 1.49 0 1 0 0 2.98 1.49 1.49 0 0 0 0-2.98Zm-3.873 1.49a3.873 3.873 0 1 1 7.747 0 3.873 3.873 0 0 1-7.747 0Z" clip-rule="evenodd" class="color445cda svgShape"></path>
  <path fill="#2b514d" fill-rule="evenodd" d="M5.333 17.4A6.667 6.667 0 0 1 12 10.733h34.667a6.667 6.667 0 0 1 6.666 6.667v13.333h-2.666V17.4a4 4 0 0 0-4-4H12a4 4 0 0 0-4 4v16h32v2.667H8v2.666a4 4 0 0 0 4 4h28V45.4H12a6.667 6.667 0 0 1-6.667-6.667V17.4Z" clip-rule="evenodd" class="color2b3151 svgShape"></path>
</svg>
