<svg xmlns="http://www.w3.org/2000/svg" viewBox="0 0 32 32" id="Target">
  <path fill="#75eee2" d="M26.204-1037.76a11.602 11.602 0 0 1-11.602 11.602A11.602 11.602 0 0 1 3-1037.76a11.602 11.602 0 0 1 11.602-11.602 11.602 11.602 0 0 1 11.602 11.602z" color="#000" overflow="visible" style="isolation:auto;mix-blend-mode:normal" transform="matrix(1 0 0 -1 0 -1020.362)" class="coloree7581 svgShape"></path>
  <path fill="#f0f7f6" d="M14.602 1046.84a9.08 9.08 0 0 1-9.08-9.08 9.08 9.08 0 0 1 9.08-9.08 9.08 9.08 0 0 1 9.08 9.08 9.08 9.08 0 0 1-9.08 9.08zm0-2.018a7.062 7.062 0 0 0 7.062-7.062 7.062 7.062 0 0 0-7.062-7.062 7.062 7.062 0 0 0-7.062 7.062 7.062 7.062 0 0 0 7.062 7.062z" color="#000" overflow="visible" style="isolation:auto;mix-blend-mode:normal" transform="translate(0 -1020.362)" class="colorf0f4f7 svgShape"></path>
  <path fill="#f0f7f6" d="M14.602 1042.804a5.044 5.044 0 0 1-5.044-5.044 5.044 5.044 0 0 1 5.044-5.044 5.044 5.044 0 0 1 5.045 5.044 5.044 5.044 0 0 1-5.045 5.044zm0-2.017a3.027 3.027 0 0 0 3.027-3.027 3.027 3.027 0 0 0-3.027-3.027 3.027 3.027 0 0 0-3.026 3.027 3.027 3.027 0 0 0 3.026 3.027z" color="#000" overflow="visible" style="isolation:auto;mix-blend-mode:normal" transform="translate(0 -1020.362)" class="colorf0f4f7 svgShape"></path>
  <path fill="#f0f7f6" d="M14.602 1038.769a1.009 1.009 0 1 1 0-2.018 1.009 1.009 0 0 1 0 2.018z" color="#000" overflow="visible" style="isolation:auto;mix-blend-mode:normal" transform="translate(0 -1020.362)" class="colorf0f4f7 svgShape"></path>
  <path fill="none" stroke="#10867b" stroke-linecap="round" stroke-linejoin="round" d="M15.005 16.995 26.438 5.562" class="colorStroke105286 svgStroke"></path>
  <path fill="#4db6ac" stroke="#10867b" stroke-linecap="round" stroke-linejoin="round" d="m28 6 3-3-1.5-.5L29 1l-3 3 .5 1.5z" class="color8fb6d7 svgShape colorStroke105286 svgStroke"></path>
</svg>
